<svg width="123" height="514" viewBox="0 0 123 514" fill="none" xmlns="http://www.w3.org/2000/svg">
<rect width="123" height="514" fill="#1E1E1E"/>
<g clip-path="url(#clip0_0_1)">
<rect width="1440" height="1153" transform="translate(0 -71)" fill="white"/>
<g opacity="0.8">
<path fill-rule="evenodd" clip-rule="evenodd" d="M-81.7899 -111.042C-34.25 -102.067 62.214 -25.3885 98.9723 16.4865C133.132 55.4011 146.346 75.3751 159.649 132.471C172.408 187.235 159.321 273.28 156.062 330.142C151.886 403.013 190.414 505.912 144.342 544.42C96.9481 584.032 38.1705 512.275 -16.4212 492.7C-52.7113 479.688 -87.2397 469.994 -121.494 449.1C-164.116 423.102 -223.481 414.983 -239.919 356.375C-256.333 297.849 -202.849 246.576 -195.468 185.348C-186.384 109.988 -230.488 17.6975 -192.316 -38.5018C-155.347 -92.9293 -136.792 -121.425 -81.7899 -111.042Z" fill="url(#paint0_linear_0_1)" fill-opacity="0.3"/>
<path fill-rule="evenodd" clip-rule="evenodd" d="M-98.2132 1.08225C-56.1038 1.16608 -14.4496 13.4072 21.2936 43.9532C54.5106 72.3399 76.4616 117.03 93.2194 164.678C109.293 210.379 94.576 250.602 96.9275 300.743C99.9403 365.002 145.318 456.069 108.811 497.173C71.2553 539.458 13.6644 486.428 -35.5363 478.245C-68.2419 472.804 -99.1163 469.973 -130.772 457.325C-170.161 441.588 -222.464 444.176 -242.081 395.721C-261.672 347.333 -219.89 293.883 -219.059 239.259C-218.036 172.029 -264.754 98.6931 -236.72 43.4397C-209.57 -10.0704 -146.933 0.985384 -98.2132 1.08225Z" fill="url(#paint1_linear_0_1)" fill-opacity="0.4"/>
<path opacity="0.4" fill-rule="evenodd" clip-rule="evenodd" d="M-88.6289 99.849C-49.6353 114.12 -13.3557 139.402 13.997 179.5C39.4159 216.763 51.3256 265.202 57.867 314.604C64.1407 361.987 57.6883 407.694 50.4137 454.531C41.0901 514.554 51.1947 599.74 9.62603 625.178C-33.1347 651.346 -76.4887 583.238 -120.523 559.137C-149.795 543.117 -177.862 530.11 -204.803 507.825C-238.325 480.095 -287.264 464.843 -296.302 413.735C-305.328 362.697 -256.547 327.701 -245.479 277.822C-231.856 216.432 -261.309 133.342 -224.922 92.0544C-189.683 52.07 -133.743 83.3363 -88.6289 99.849Z" fill="url(#paint2_linear_0_1)" fill-opacity="0.6"/>
</g>
</g>
<defs>
<linearGradient id="paint0_linear_0_1" x1="-180.687" y1="463.041" x2="64.3511" y2="30.8286" gradientUnits="userSpaceOnUse">
<stop stop-color="#9EE6F7" stop-opacity="0"/>
<stop offset="1" stop-color="#9EE6F7" stop-opacity="0.46"/>
</linearGradient>
<linearGradient id="paint1_linear_0_1" x1="-191.283" y1="475.344" x2="-38.3052" y2="50.9414" gradientUnits="userSpaceOnUse">
<stop stop-color="#9EE6F7" stop-opacity="0"/>
<stop offset="1" stop-color="#9EE6F7" stop-opacity="0.46"/>
</linearGradient>
<linearGradient id="paint2_linear_0_1" x1="-264.255" y1="503.973" x2="-16.7186" y2="185.916" gradientUnits="userSpaceOnUse">
<stop stop-color="#005AE2"/>
<stop offset="1" stop-color="#73E6FF" stop-opacity="0.38"/>
</linearGradient>
<clipPath id="clip0_0_1">
<rect width="1440" height="1153" fill="white" transform="translate(0 -71)"/>
</clipPath>
</defs>
</svg>
