<svg width="61" height="560" viewBox="0 0 61 560" fill="none" xmlns="http://www.w3.org/2000/svg">
<rect width="61" height="560" fill="#1E1E1E"/>
<g clip-path="url(#clip0_0_1)">
<rect width="1440" height="1153" transform="translate(0 -143)" fill="white"/>
<g opacity="0.8">
<path fill-rule="evenodd" clip-rule="evenodd" d="M-81.7899 -183.042C-34.25 -174.067 62.214 -97.3885 98.9723 -55.5135C133.132 -16.5989 146.346 3.37509 159.649 60.4711C172.408 115.235 159.321 201.28 156.062 258.142C151.886 331.013 190.414 433.912 144.342 472.42C96.9481 512.032 38.1705 440.275 -16.4212 420.7C-52.7113 407.688 -87.2397 397.994 -121.494 377.1C-164.116 351.102 -223.481 342.983 -239.919 284.375C-256.333 225.849 -202.849 174.576 -195.468 113.348C-186.384 37.9883 -230.488 -54.3025 -192.316 -110.502C-155.347 -164.929 -136.792 -193.425 -81.7899 -183.042Z" fill="url(#paint0_linear_0_1)" fill-opacity="0.3"/>
<path fill-rule="evenodd" clip-rule="evenodd" d="M-98.2132 -70.9177C-56.1038 -70.8339 -14.4496 -58.5928 21.2935 -28.0468C54.5106 0.339851 76.4616 45.0304 93.2194 92.6783C109.293 138.379 94.576 178.602 96.9275 228.743C99.9403 293.002 145.318 384.069 108.811 425.173C71.2553 467.458 13.6644 414.428 -35.5363 406.245C-68.2419 400.804 -99.1163 397.973 -130.772 385.325C-170.161 369.588 -222.464 372.176 -242.082 323.721C-261.672 275.333 -219.89 221.883 -219.059 167.259C-218.036 100.029 -264.754 26.6931 -236.72 -28.5603C-209.57 -82.0704 -146.933 -71.0146 -98.2132 -70.9177Z" fill="url(#paint1_linear_0_1)" fill-opacity="0.4"/>
<path opacity="0.4" fill-rule="evenodd" clip-rule="evenodd" d="M-88.6289 27.849C-49.6353 42.1201 -13.3557 67.4021 13.997 107.5C39.4159 144.763 51.3256 193.202 57.867 242.604C64.1407 289.987 57.6883 335.694 50.4137 382.531C41.0901 442.554 51.1947 527.74 9.62604 553.178C-33.1347 579.346 -76.4887 511.238 -120.523 487.137C-149.795 471.117 -177.862 458.11 -204.803 435.825C-238.325 408.095 -287.264 392.843 -296.302 341.735C-305.328 290.697 -256.547 255.701 -245.479 205.822C-231.856 144.432 -261.309 61.3421 -224.922 20.0544C-189.683 -19.93 -133.743 11.3363 -88.6289 27.849Z" fill="url(#paint2_linear_0_1)" fill-opacity="0.6"/>
</g>
</g>
<defs>
<linearGradient id="paint0_linear_0_1" x1="-180.687" y1="391.041" x2="64.3511" y2="-41.1714" gradientUnits="userSpaceOnUse">
<stop stop-color="#9EE6F7" stop-opacity="0"/>
<stop offset="1" stop-color="#9EE6F7" stop-opacity="0.46"/>
</linearGradient>
<linearGradient id="paint1_linear_0_1" x1="-191.283" y1="403.344" x2="-38.3052" y2="-21.0586" gradientUnits="userSpaceOnUse">
<stop stop-color="#9EE6F7" stop-opacity="0"/>
<stop offset="1" stop-color="#9EE6F7" stop-opacity="0.46"/>
</linearGradient>
<linearGradient id="paint2_linear_0_1" x1="-264.255" y1="431.973" x2="-16.7186" y2="113.916" gradientUnits="userSpaceOnUse">
<stop stop-color="#005AE2"/>
<stop offset="1" stop-color="#73E6FF" stop-opacity="0.38"/>
</linearGradient>
<clipPath id="clip0_0_1">
<rect width="1440" height="1153" fill="white" transform="translate(0 -143)"/>
</clipPath>
</defs>
</svg>
