<svg width="404" height="159" viewBox="0 0 404 159" fill="none" xmlns="http://www.w3.org/2000/svg">
<rect width="404" height="159" fill="#1E1E1E"/>
<g clip-path="url(#clip0_0_1)">
<rect x="-1036" y="-190" width="1440" height="400" fill="url(#paint0_linear_0_1)"/>
<g opacity="0.7">
<path fill-rule="evenodd" clip-rule="evenodd" d="M-108.5 189.647C-98.2337 142.37 -18.9553 48.0304 23.9055 12.4265C63.7363 -20.6606 84.0628 -33.3248 141.5 -45.0675C196.591 -56.3305 282.248 -40.9042 339 -36.0976C411.73 -29.9374 515.641 -65.6477 552.879 -18.5438C591.186 29.9114 517.853 86.7124 496.799 140.75C482.803 176.673 472.172 210.924 450.353 244.597C423.203 286.495 413.469 345.616 354.435 360.451C295.484 375.265 245.688 320.404 184.683 311.358C109.599 300.224 16.1406 341.798 -38.9979 302.109C-92.398 263.67 -120.377 244.347 -108.5 189.647Z" fill="url(#paint1_linear_0_1)" fill-opacity="0.3"/>
<path fill-rule="evenodd" clip-rule="evenodd" d="M3.13513 209.119C4.36611 167.028 17.7374 125.722 49.2459 90.8247C78.5269 58.3933 123.799 37.6679 171.886 22.2144C218.008 7.39188 257.814 23.199 308.001 22.2145C372.318 20.9533 464.588 -21.9267 504.682 15.6869C545.927 54.3803 491.348 110.505 481.828 159.465C475.499 192.01 471.827 222.796 458.322 254.095C441.517 293.041 442.68 345.395 393.708 363.685C344.804 381.95 292.513 338.728 237.932 336.409C170.754 333.555 96.1727 378.258 41.7036 348.729C-11.047 320.131 1.71105 257.818 3.13513 209.119Z" fill="url(#paint2_linear_0_1)" fill-opacity="0.4"/>
<path fill-rule="evenodd" clip-rule="evenodd" d="M102.126 202.229C117.454 163.639 143.715 128.061 184.543 101.811C222.485 77.4169 271.23 66.8312 320.792 61.6381C368.329 56.6576 413.843 64.3528 460.464 72.9006C520.211 83.8559 605.641 76.0758 629.937 118.322C654.93 161.78 585.666 203.262 560.375 246.624C543.564 275.448 529.797 303.151 506.786 329.474C478.153 362.228 461.573 410.734 410.238 418.377C358.973 426.009 325.319 376.292 275.76 363.869C214.764 348.579 130.903 375.758 90.6215 338.26C51.6119 301.945 84.3906 246.876 102.126 202.229Z" fill="url(#paint3_linear_0_1)" fill-opacity="0.6"/>
</g>
</g>
<defs>
<linearGradient id="paint0_linear_0_1" x1="-316" y1="-190" x2="-316" y2="210" gradientUnits="userSpaceOnUse">
<stop offset="0.9999" stop-color="#1E3448"/>
<stop offset="1" stop-color="#1E3448" stop-opacity="0"/>
</linearGradient>
<linearGradient id="paint1_linear_0_1" x1="462.675" y1="304.148" x2="37.2991" y2="47.4255" gradientUnits="userSpaceOnUse">
<stop stop-color="#9EE6F7" stop-opacity="0"/>
<stop offset="1" stop-color="#9EE6F7" stop-opacity="0.46"/>
</linearGradient>
<linearGradient id="paint2_linear_0_1" x1="474.685" y1="315.075" x2="54.6079" y2="150.592" gradientUnits="userSpaceOnUse">
<stop stop-color="#9EE6F7" stop-opacity="0"/>
<stop offset="1" stop-color="#9EE6F7" stop-opacity="0.46"/>
</linearGradient>
<linearGradient id="paint3_linear_0_1" x1="501.316" y1="388.8" x2="190.121" y2="132.69" gradientUnits="userSpaceOnUse">
<stop stop-color="#005AE2"/>
<stop offset="1" stop-color="#73E6FF" stop-opacity="0.38"/>
</linearGradient>
<clipPath id="clip0_0_1">
<rect width="1440" height="299" fill="white" transform="translate(-1036 -140)"/>
</clipPath>
</defs>
</svg>
