<svg width="421" height="273" viewBox="0 0 421 273" fill="none" xmlns="http://www.w3.org/2000/svg">
<rect width="421" height="273" fill="#1E1E1E"/>
<g clip-path="url(#clip0_0_1)">
<rect y="-50" width="1440" height="400" fill="url(#paint0_linear_0_1)"/>
<g opacity="0.5">
<path fill-rule="evenodd" clip-rule="evenodd" d="M43 192.107C-13.417 169.4 -91.4973 207.114 -122.5 165.197C-151.311 126.244 -160.612 44.6091 -156.682 0.194901C-152.913 -42.405 -129.881 -80.1686 -105.252 -118.689C-73.6885 -168.054 -65.0909 -244.326 6.63529 -255.235C80.4193 -266.456 128.261 -196.084 189.698 -163.545C230.539 -141.915 270.367 -123.208 305.807 -96.7871C349.903 -63.9117 421.468 -37.7091 420.926 8.84397C420.385 55.3315 334.746 72.5759 303.366 112.714C264.745 162.117 286.756 241.729 218.553 267.706C152.499 292.865 108.273 218.379 43 192.107Z" fill="url(#paint1_linear_0_1)" fill-opacity="0.3"/>
<path fill-rule="evenodd" clip-rule="evenodd" d="M130 156.975C77.1864 142.346 13.321 143.549 -20.5001 109.883C-51.9311 78.5958 -50.7569 74.6479 -54.5753 35.6263C-58.2382 -1.8013 -44.3437 -36.7734 -29.1826 -72.5491C-9.75197 -118.397 -14.6996 -185.578 45.9617 -201.606C108.364 -218.094 161.481 -161.191 220.268 -138.461C259.346 -123.351 297.068 -110.693 332.225 -90.9206C375.971 -66.3182 442.541 -50.0253 449.657 -9.45126C456.763 31.067 385.023 53.8784 364.249 91.678C338.681 138.202 370.818 205.501 315.679 234.327C262.279 262.243 191.104 173.9 130 156.975Z" fill="url(#paint2_linear_0_1)" fill-opacity="0.4"/>
<path fill-rule="evenodd" clip-rule="evenodd" d="M167.5 93.0639C123.721 69.6206 11.8413 73.3034 -8.00006 35.88C-26.4387 1.10235 85.3641 9.05233 95.0001 -27.6575C104.243 -62.8673 80.953 -62.5497 107 -92.69C140.382 -131.316 181.646 -89.3365 243 -92.69C306.114 -96.1401 300.736 -178.991 356.14 -165.456C417.702 -150.417 330.381 -66.3471 356.14 -41.4862C388.191 -10.5521 531.325 -42.0129 524.207 -3.24956C517.098 35.4605 443.239 42.9825 411.333 73.9319C372.062 112.023 379.01 180.15 318.434 196.348C259.769 212.034 218.149 120.188 167.5 93.0639Z" fill="url(#paint3_linear_0_1)" fill-opacity="0.6"/>
</g>
<path d="M430.48 144L424.84 134.28H420.64V144H415.12V116H426.32C428.906 116 431.106 116.907 432.92 118.72C434.733 120.533 435.64 122.72 435.64 125.28C435.64 127.013 435.146 128.627 434.16 130.12C433.173 131.587 431.866 132.693 430.24 133.44L436.44 144H430.48ZM420.64 121.16V129.44H426.32C427.36 129.44 428.253 129.04 429 128.24C429.746 127.413 430.12 126.427 430.12 125.28C430.12 124.133 429.746 123.16 429 122.36C428.253 121.56 427.36 121.16 426.32 121.16H420.64ZM442.794 136.12C443.488 138.627 445.368 139.88 448.434 139.88C450.408 139.88 451.901 139.213 452.914 137.88L457.074 140.28C455.101 143.133 452.194 144.56 448.354 144.56C445.048 144.56 442.394 143.56 440.394 141.56C438.394 139.56 437.394 137.04 437.394 134C437.394 130.987 438.381 128.48 440.354 126.48C442.328 124.453 444.861 123.44 447.954 123.44C450.888 123.44 453.301 124.453 455.194 126.48C457.114 128.507 458.074 131.013 458.074 134C458.074 134.667 458.008 135.373 457.874 136.12H442.794ZM442.714 132.12H452.914C452.621 130.76 452.008 129.747 451.074 129.08C450.168 128.413 449.128 128.08 447.954 128.08C446.568 128.08 445.421 128.44 444.514 129.16C443.608 129.853 443.008 130.84 442.714 132.12ZM474.055 124H479.735L472.135 144H466.255L458.655 124H464.335L469.175 138L474.055 124ZM498.482 141.52C496.429 143.547 493.922 144.56 490.962 144.56C488.002 144.56 485.495 143.547 483.442 141.52C481.415 139.467 480.402 136.96 480.402 134C480.402 131.04 481.415 128.547 483.442 126.52C485.495 124.467 488.002 123.44 490.962 123.44C493.922 123.44 496.429 124.467 498.482 126.52C500.535 128.547 501.562 131.04 501.562 134C501.562 136.96 500.535 139.467 498.482 141.52ZM487.082 137.96C488.122 139 489.415 139.52 490.962 139.52C492.509 139.52 493.802 139 494.842 137.96C495.882 136.92 496.402 135.6 496.402 134C496.402 132.4 495.882 131.08 494.842 130.04C493.802 129 492.509 128.48 490.962 128.48C489.415 128.48 488.122 129 487.082 130.04C486.069 131.08 485.562 132.4 485.562 134C485.562 135.6 486.069 136.92 487.082 137.96ZM505.192 144V114.8H510.352V144H505.192ZM528.275 124H533.435V144H528.275V141.76C527.022 143.627 525.035 144.56 522.315 144.56C520.128 144.56 518.315 143.827 516.875 142.36C515.462 140.893 514.755 138.867 514.755 136.28V124H519.915V135.64C519.915 136.973 520.275 138 520.995 138.72C521.715 139.413 522.675 139.76 523.875 139.76C525.208 139.76 526.275 139.347 527.075 138.52C527.875 137.693 528.275 136.453 528.275 134.8V124ZM549.601 128.96H545.081V137.28C545.081 137.973 545.254 138.48 545.601 138.8C545.947 139.12 546.454 139.307 547.121 139.36C547.787 139.387 548.614 139.373 549.601 139.32V144C546.054 144.4 543.547 144.067 542.081 143C540.641 141.933 539.921 140.027 539.921 137.28V128.96H536.441V124H539.921V119.96L545.081 118.4V124H549.601V128.96ZM555.799 121.6C554.946 121.6 554.199 121.293 553.559 120.68C552.946 120.04 552.639 119.293 552.639 118.44C552.639 117.587 552.946 116.84 553.559 116.2C554.199 115.56 554.946 115.24 555.799 115.24C556.679 115.24 557.426 115.56 558.039 116.2C558.679 116.84 558.999 117.587 558.999 118.44C558.999 119.293 558.679 120.04 558.039 120.68C557.426 121.293 556.679 121.6 555.799 121.6ZM553.239 144V124H558.399V144H553.239ZM580.162 141.52C578.108 143.547 575.602 144.56 572.642 144.56C569.682 144.56 567.175 143.547 565.122 141.52C563.095 139.467 562.082 136.96 562.082 134C562.082 131.04 563.095 128.547 565.122 126.52C567.175 124.467 569.682 123.44 572.642 123.44C575.602 123.44 578.108 124.467 580.162 126.52C582.215 128.547 583.242 131.04 583.242 134C583.242 136.96 582.215 139.467 580.162 141.52ZM568.762 137.96C569.802 139 571.095 139.52 572.642 139.52C574.188 139.52 575.482 139 576.522 137.96C577.562 136.92 578.082 135.6 578.082 134C578.082 132.4 577.562 131.08 576.522 130.04C575.482 129 574.188 128.48 572.642 128.48C571.095 128.48 569.802 129 568.762 130.04C567.748 131.08 567.242 132.4 567.242 134C567.242 135.6 567.748 136.92 568.762 137.96ZM597.992 123.44C600.178 123.44 601.978 124.173 603.392 125.64C604.832 127.107 605.552 129.133 605.552 131.72V144H600.392V132.36C600.392 131.027 600.032 130.013 599.312 129.32C598.592 128.6 597.632 128.24 596.432 128.24C595.098 128.24 594.032 128.653 593.232 129.48C592.432 130.307 592.032 131.547 592.032 133.2V144H586.872V124H592.032V126.24C593.285 124.373 595.272 123.44 597.992 123.44ZM612.518 121.6C611.664 121.6 610.918 121.293 610.278 120.68C609.664 120.04 609.358 119.293 609.358 118.44C609.358 117.587 609.664 116.84 610.278 116.2C610.918 115.56 611.664 115.24 612.518 115.24C613.398 115.24 614.144 115.56 614.758 116.2C615.398 116.84 615.718 117.587 615.718 118.44C615.718 119.293 615.398 120.04 614.758 120.68C614.144 121.293 613.398 121.6 612.518 121.6ZM609.958 144V124H615.118V144H609.958ZM626.12 139.16H635V144H619.2V140.56L627.64 128.84H619.6V124H634.6V127.44L626.12 139.16ZM641.346 121.6C640.492 121.6 639.746 121.293 639.106 120.68C638.492 120.04 638.186 119.293 638.186 118.44C638.186 117.587 638.492 116.84 639.106 116.2C639.746 115.56 640.492 115.24 641.346 115.24C642.226 115.24 642.972 115.56 643.586 116.2C644.226 116.84 644.546 117.587 644.546 118.44C644.546 119.293 644.226 120.04 643.586 120.68C642.972 121.293 642.226 121.6 641.346 121.6ZM638.786 144V124H643.946V144H638.786ZM659.789 123.44C661.975 123.44 663.775 124.173 665.189 125.64C666.629 127.107 667.349 129.133 667.349 131.72V144H662.189V132.36C662.189 131.027 661.829 130.013 661.109 129.32C660.389 128.6 659.429 128.24 658.229 128.24C656.895 128.24 655.829 128.653 655.029 129.48C654.229 130.307 653.829 131.547 653.829 133.2V144H648.669V124H653.829V126.24C655.082 124.373 657.069 123.44 659.789 123.44ZM687.075 124H692.115V143.04C692.115 146.133 691.088 148.493 689.035 150.12C687.008 151.747 684.555 152.56 681.675 152.56C679.515 152.56 677.608 152.147 675.955 151.32C674.328 150.493 673.075 149.28 672.195 147.68L676.595 145.16C677.608 147.027 679.355 147.96 681.835 147.96C683.461 147.96 684.741 147.533 685.675 146.68C686.608 145.827 687.075 144.613 687.075 143.04V140.88C685.555 142.907 683.421 143.92 680.675 143.92C677.848 143.92 675.475 142.933 673.555 140.96C671.661 138.96 670.715 136.533 670.715 133.68C670.715 130.853 671.675 128.44 673.595 126.44C675.515 124.44 677.875 123.44 680.675 123.44C683.421 123.44 685.555 124.453 687.075 126.48V124ZM677.435 137.64C678.501 138.653 679.848 139.16 681.475 139.16C683.101 139.16 684.435 138.653 685.475 137.64C686.541 136.6 687.075 135.28 687.075 133.68C687.075 132.107 686.541 130.813 685.475 129.8C684.435 128.76 683.101 128.24 681.475 128.24C679.848 128.24 678.501 128.76 677.435 129.8C676.395 130.813 675.875 132.107 675.875 133.68C675.875 135.28 676.395 136.6 677.435 137.64ZM712.554 138.72H723.234V144H707.034V116H712.554V138.72ZM728.69 121.6C727.836 121.6 727.09 121.293 726.45 120.68C725.836 120.04 725.53 119.293 725.53 118.44C725.53 117.587 725.836 116.84 726.45 116.2C727.09 115.56 727.836 115.24 728.69 115.24C729.57 115.24 730.316 115.56 730.93 116.2C731.57 116.84 731.89 117.587 731.89 118.44C731.89 119.293 731.57 120.04 730.93 120.68C730.316 121.293 729.57 121.6 728.69 121.6ZM726.13 144V124H731.29V144H726.13ZM747.132 123.44C749.319 123.44 751.119 124.173 752.532 125.64C753.972 127.107 754.692 129.133 754.692 131.72V144H749.532V132.36C749.532 131.027 749.172 130.013 748.452 129.32C747.732 128.6 746.772 128.24 745.572 128.24C744.239 128.24 743.172 128.653 742.372 129.48C741.572 130.307 741.172 131.547 741.172 133.2V144H736.012V124H741.172V126.24C742.426 124.373 744.412 123.44 747.132 123.44ZM777.538 144H771.538L764.258 134.92V144H759.098V116H764.258V132.8L771.138 124H777.298L769.258 133.88L777.538 144ZM813.914 140.36C811.087 143.16 807.647 144.56 803.594 144.56C799.541 144.56 796.101 143.16 793.274 140.36C790.474 137.533 789.074 134.08 789.074 130C789.074 125.92 790.474 122.48 793.274 119.68C796.101 116.853 799.541 115.44 803.594 115.44C807.647 115.44 811.087 116.853 813.914 119.68C816.741 122.48 818.154 125.92 818.154 130C818.154 134.08 816.741 137.533 813.914 140.36ZM797.154 136.6C798.887 138.307 801.034 139.16 803.594 139.16C806.154 139.16 808.301 138.307 810.034 136.6C811.767 134.867 812.634 132.667 812.634 130C812.634 127.333 811.767 125.133 810.034 123.4C808.301 121.667 806.154 120.8 803.594 120.8C801.034 120.8 798.887 121.667 797.154 123.4C795.421 125.133 794.554 127.333 794.554 130C794.554 132.667 795.421 134.867 797.154 136.6ZM833.434 123.44C836.127 123.44 838.42 124.467 840.314 126.52C842.234 128.547 843.194 131.04 843.194 134C843.194 136.96 842.234 139.467 840.314 141.52C838.42 143.547 836.127 144.56 833.434 144.56C830.634 144.56 828.474 143.587 826.954 141.64V152H821.794V124H826.954V126.36C828.474 124.413 830.634 123.44 833.434 123.44ZM828.514 138.08C829.554 139.12 830.874 139.64 832.474 139.64C834.074 139.64 835.394 139.12 836.434 138.08C837.5 137.013 838.034 135.653 838.034 134C838.034 132.347 837.5 131 836.434 129.96C835.394 128.893 834.074 128.36 832.474 128.36C830.874 128.36 829.554 128.893 828.514 129.96C827.474 131 826.954 132.347 826.954 134C826.954 135.653 827.474 137.013 828.514 138.08ZM857.843 128.96H853.323V137.28C853.323 137.973 853.496 138.48 853.843 138.8C854.19 139.12 854.696 139.307 855.363 139.36C856.03 139.387 856.856 139.373 857.843 139.32V144C854.296 144.4 851.79 144.067 850.323 143C848.883 141.933 848.163 140.027 848.163 137.28V128.96H844.683V124H848.163V119.96L853.323 118.4V124H857.843V128.96ZM864.041 121.6C863.188 121.6 862.441 121.293 861.801 120.68C861.188 120.04 860.881 119.293 860.881 118.44C860.881 117.587 861.188 116.84 861.801 116.2C862.441 115.56 863.188 115.24 864.041 115.24C864.921 115.24 865.668 115.56 866.281 116.2C866.921 116.84 867.241 117.587 867.241 118.44C867.241 119.293 866.921 120.04 866.281 120.68C865.668 121.293 864.921 121.6 864.041 121.6ZM861.481 144V124H866.641V144H861.481ZM893.484 123.44C895.777 123.44 897.604 124.187 898.964 125.68C900.351 127.173 901.044 129.173 901.044 131.68V144H895.884V132.04C895.884 130.84 895.591 129.907 895.004 129.24C894.417 128.573 893.591 128.24 892.524 128.24C891.351 128.24 890.431 128.627 889.764 129.4C889.124 130.173 888.804 131.293 888.804 132.76V144H883.644V132.04C883.644 130.84 883.351 129.907 882.764 129.24C882.177 128.573 881.351 128.24 880.284 128.24C879.137 128.24 878.217 128.627 877.524 129.4C876.857 130.173 876.524 131.293 876.524 132.76V144H871.364V124H876.524V126.12C877.724 124.333 879.577 123.44 882.084 123.44C884.537 123.44 886.351 124.4 887.524 126.32C888.857 124.4 890.844 123.44 893.484 123.44ZM907.986 121.6C907.133 121.6 906.386 121.293 905.746 120.68C905.133 120.04 904.826 119.293 904.826 118.44C904.826 117.587 905.133 116.84 905.746 116.2C906.386 115.56 907.133 115.24 907.986 115.24C908.866 115.24 909.613 115.56 910.226 116.2C910.866 116.84 911.186 117.587 911.186 118.44C911.186 119.293 910.866 120.04 910.226 120.68C909.613 121.293 908.866 121.6 907.986 121.6ZM905.426 144V124H910.586V144H905.426ZM921.589 139.16H930.469V144H914.669V140.56L923.109 128.84H915.069V124H930.069V127.44L921.589 139.16ZM948.205 124H953.365V144H948.205V141.64C946.658 143.587 944.485 144.56 941.685 144.56C939.018 144.56 936.725 143.547 934.805 141.52C932.911 139.467 931.965 136.96 931.965 134C931.965 131.04 932.911 128.547 934.805 126.52C936.725 124.467 939.018 123.44 941.685 123.44C944.485 123.44 946.658 124.413 948.205 126.36V124ZM938.685 138.08C939.725 139.12 941.045 139.64 942.645 139.64C944.245 139.64 945.565 139.12 946.605 138.08C947.671 137.013 948.205 135.653 948.205 134C948.205 132.347 947.671 131 946.605 129.96C945.565 128.893 944.245 128.36 942.645 128.36C941.045 128.36 939.725 128.893 938.685 129.96C937.645 131 937.125 132.347 937.125 134C937.125 135.653 937.645 137.013 938.685 138.08ZM969.484 128.96H964.964V137.28C964.964 137.973 965.137 138.48 965.484 138.8C965.83 139.12 966.337 139.307 967.004 139.36C967.67 139.387 968.497 139.373 969.484 139.32V144C965.937 144.4 963.43 144.067 961.964 143C960.524 141.933 959.804 140.027 959.804 137.28V128.96H956.324V124H959.804V119.96L964.964 118.4V124H969.484V128.96ZM975.682 121.6C974.828 121.6 974.082 121.293 973.442 120.68C972.828 120.04 972.522 119.293 972.522 118.44C972.522 117.587 972.828 116.84 973.442 116.2C974.082 115.56 974.828 115.24 975.682 115.24C976.562 115.24 977.308 115.56 977.922 116.2C978.562 116.84 978.882 117.587 978.882 118.44C978.882 119.293 978.562 120.04 977.922 120.68C977.308 121.293 976.562 121.6 975.682 121.6ZM973.122 144V124H978.282V144H973.122ZM1000.04 141.52C997.991 143.547 995.485 144.56 992.525 144.56C989.565 144.56 987.058 143.547 985.005 141.52C982.978 139.467 981.965 136.96 981.965 134C981.965 131.04 982.978 128.547 985.005 126.52C987.058 124.467 989.565 123.44 992.525 123.44C995.485 123.44 997.991 124.467 1000.04 126.52C1002.1 128.547 1003.12 131.04 1003.12 134C1003.12 136.96 1002.1 139.467 1000.04 141.52ZM988.645 137.96C989.685 139 990.978 139.52 992.525 139.52C994.071 139.52 995.365 139 996.405 137.96C997.445 136.92 997.965 135.6 997.965 134C997.965 132.4 997.445 131.08 996.405 130.04C995.365 129 994.071 128.48 992.525 128.48C990.978 128.48 989.685 129 988.645 130.04C987.631 131.08 987.125 132.4 987.125 134C987.125 135.6 987.631 136.92 988.645 137.96ZM1017.87 123.44C1020.06 123.44 1021.86 124.173 1023.27 125.64C1024.71 127.107 1025.43 129.133 1025.43 131.72V144H1020.27V132.36C1020.27 131.027 1019.91 130.013 1019.19 129.32C1018.47 128.6 1017.51 128.24 1016.31 128.24C1014.98 128.24 1013.91 128.653 1013.11 129.48C1012.31 130.307 1011.91 131.547 1011.91 133.2V144H1006.75V124H1011.91V126.24C1013.17 124.373 1015.15 123.44 1017.87 123.44Z" fill="white"/>
</g>
<defs>
<linearGradient id="paint0_linear_0_1" x1="720" y1="-50" x2="720" y2="350" gradientUnits="userSpaceOnUse">
<stop offset="0.9999" stop-color="#1E3448"/>
<stop offset="1" stop-color="#1E3448" stop-opacity="0"/>
</linearGradient>
<linearGradient id="paint1_linear_0_1" x1="396.928" y1="-77.634" x2="140.688" y2="285.345" gradientUnits="userSpaceOnUse">
<stop stop-color="#9EE6F7" stop-opacity="0"/>
<stop offset="1" stop-color="#9EE6F7" stop-opacity="0.46"/>
</linearGradient>
<linearGradient id="paint2_linear_0_1" x1="414.67" y1="-82.5464" x2="238.043" y2="250.013" gradientUnits="userSpaceOnUse">
<stop stop-color="#9EE6F7" stop-opacity="0"/>
<stop offset="1" stop-color="#9EE6F7" stop-opacity="0.46"/>
</linearGradient>
<linearGradient id="paint3_linear_0_1" x1="516.586" y1="-77.2588" x2="255.452" y2="208.884" gradientUnits="userSpaceOnUse">
<stop stop-color="#005AE2"/>
<stop offset="1" stop-color="#73E6FF" stop-opacity="0.38"/>
</linearGradient>
<clipPath id="clip0_0_1">
<rect width="1440" height="299" fill="white"/>
</clipPath>
</defs>
</svg>
